<!DOCTYPE svg PUBLIC "-//W3C//DTD SVG 20010904//EN" "http://www.w3.org/TR/2001/REC-SVG-20010904/DTD/svg10.dtd">
<svg version="1.0" xmlns="http://www.w3.org/2000/svg" width="66px" height="66px" viewBox="0 0 660 660" preserveAspectRatio="xMidYMid meet">
<g id="layer101" fill="#47bb14" stroke="none">
 <path d="M194 636 c-73 -34 -128 -88 -164 -158 -26 -54 -30 -71 -30 -147 0 -70 5 -96 24 -137 34 -73 88 -128 158 -164 54 -26 71 -30 148 -30 77 0 94 4 148 30 70 36 124 91 158 164 19 41 24 67 24 137 0 76 -4 93 -30 147 -36 70 -91 124 -164 158 -73 34 -199 34 -272 0z m219 -67 c54 -15 142 -102 156 -154 14 -51 14 -119 0 -170 -14 -52 -102 -139 -156 -154 -101 -28 -186 -8 -258 62 -72 70 -93 156 -64 262 13 49 102 140 151 154 45 13 125 13 171 0z"/>
 <path d="M302 368 c-8 -8 -12 -49 -12 -124 0 -117 8 -140 47 -132 16 3 18 16 21 101 l3 97 72 0 c84 0 120 16 101 47 -9 15 -27 18 -115 21 -73 2 -108 -1 -117 -10z"/>
 </g>

</svg>