<!DOCTYPE svg PUBLIC "-//W3C//DTD SVG 20010904//EN" "http://www.w3.org/TR/2001/REC-SVG-20010904/DTD/svg10.dtd">
<svg version="1.0" xmlns="http://www.w3.org/2000/svg" width="79px" height="67px" viewBox="0 0 790 670" preserveAspectRatio="xMidYMid meet">
<g id="layer101" fill="#46b914" stroke="none">
 <path d="M211 652 c-68 -26 -153 -110 -186 -183 -25 -56 -27 -70 -23 -148 3 -64 10 -97 27 -130 36 -70 104 -135 172 -166 54 -24 70 -27 147 -23 104 4 163 29 230 96 66 66 96 139 97 237 0 76 -2 82 -34 123 -32 40 -36 41 -55 27 -70 -51 -64 -49 -91 -31 -34 22 -31 45 11 100 43 56 38 65 -42 96 -69 25 -189 26 -253 2z m149 -122 c0 -21 5 -30 16 -30 30 0 74 -56 74 -93 0 -46 -25 -75 -91 -106 -44 -21 -54 -31 -54 -51 0 -24 3 -25 59 -25 51 0 60 -3 67 -22 7 -20 4 -24 -31 -34 -32 -10 -40 -17 -40 -36 0 -18 -5 -23 -25 -23 -21 0 -25 5 -25 30 0 20 -5 30 -15 30 -31 0 -65 47 -65 88 0 46 18 66 93 102 53 26 68 50 47 75 -14 17 -67 19 -106 5 -31 -12 -31 -12 -36 20 -3 22 3 27 40 38 34 11 42 18 42 38 0 19 5 24 25 24 21 0 25 -5 25 -30z"/>
 <path d="M543 571 c-29 -38 -53 -76 -53 -84 0 -29 29 -25 73 8 l44 34 73 -85 c71 -82 101 -100 108 -62 4 20 -158 252 -178 255 -8 2 -39 -28 -67 -66z"/>
 </g>

</svg>