<!DOCTYPE svg PUBLIC "-//W3C//DTD SVG 20010904//EN" "http://www.w3.org/TR/2001/REC-SVG-20010904/DTD/svg10.dtd">
<svg version="1.0" xmlns="http://www.w3.org/2000/svg" width="65px" height="62px" viewBox="0 0 650 620" preserveAspectRatio="xMidYMid meet">
<g id="layer101" fill="#46b814" stroke="none">
 <path d="M5 607 c-3 -7 -4 -105 -3 -217 l3 -205 33 -3 c26 -3 32 0 32 17 0 11 -7 21 -15 23 -13 3 -16 30 -18 181 -3 221 3 225 88 59 l60 -117 141 -3 141 -3 6 -40 c3 -22 8 -43 11 -46 13 -13 36 22 36 53 l0 34 65 0 c64 0 65 0 65 28 0 15 -27 77 -59 137 l-59 110 -261 3 c-207 2 -263 0 -266 -11z"/>
 <path d="M80 261 c0 -126 3 -236 6 -245 5 -14 28 -16 148 -16 l142 0 42 43 42 43 0 122 c0 102 -2 122 -15 122 -12 0 -15 -18 -15 -105 l0 -105 -40 0 -40 0 0 -45 0 -45 -115 0 -115 0 0 211 c0 200 -6 249 -30 249 -6 0 -10 -89 -10 -229z"/>
 <path d="M135 350 c-10 -16 2 -27 35 -32 35 -5 38 1 10 25 -23 19 -36 21 -45 7z"/>
 <path d="M135 260 c-4 -6 -1 -18 6 -26 10 -12 36 -14 138 -12 118 3 126 4 126 23 0 19 -8 20 -132 23 -86 2 -134 -1 -138 -8z"/>
 <path d="M143 174 c-21 -9 -15 -33 10 -39 12 -3 74 -4 137 -3 107 3 115 4 115 23 0 19 -7 20 -125 22 -69 1 -131 -1 -137 -3z"/>
 </g>

</svg>