<!DOCTYPE svg PUBLIC "-//W3C//DTD SVG 20010904//EN" "http://www.w3.org/TR/2001/REC-SVG-20010904/DTD/svg10.dtd">
<svg version="1.0" xmlns="http://www.w3.org/2000/svg" width="59px" height="69px" viewBox="0 0 590 690" preserveAspectRatio="xMidYMid meet">
<g id="layer101" fill="#46b914" stroke="none">
 <path d="M127 684 c-4 -4 -7 -17 -7 -29 0 -12 -11 -37 -25 -56 -66 -91 -86 -161 -65 -224 9 -28 16 -35 29 -29 51 22 89 33 111 34 80 1 171 -61 192 -132 14 -49 61 -90 97 -86 27 3 28 7 15 60 -5 23 0 35 30 68 20 22 36 45 36 50 0 6 11 15 25 20 23 9 25 15 25 66 0 47 -3 57 -20 61 -11 3 -30 24 -44 47 -13 22 -36 52 -50 65 -18 17 -26 35 -26 58 l0 33 -65 0 c-51 0 -65 -3 -65 -15 0 -10 -11 -15 -35 -15 -23 0 -34 4 -32 13 2 13 -113 24 -126 11z m336 -339 c1 -5 -6 -11 -15 -13 -11 -2 -18 3 -18 13 0 17 30 18 33 0z"/>
 <path d="M92 333 c-56 -27 -86 -76 -90 -149 -5 -75 17 -120 79 -161 33 -22 47 -25 102 -21 105 6 167 72 167 176 0 126 -143 212 -258 155z m88 -53 c0 -6 12 -21 27 -34 35 -31 27 -66 -22 -89 -43 -21 -41 -42 3 -42 19 0 32 -5 32 -12 0 -7 -7 -13 -15 -13 -9 0 -18 -7 -21 -15 -7 -18 -24 -20 -24 -2 0 7 -9 18 -20 25 -35 21 -26 59 20 82 58 30 47 70 -16 54 -15 -4 -24 -2 -24 6 0 6 9 14 20 17 11 3 20 12 20 19 0 8 5 14 10 14 6 0 10 -5 10 -10z"/>
 </g>

</svg>